/* XPM */
static char * collectable_xpm[] = {
"64 64 221 2",
"  	c #000000",
". 	c #010101",
"+ 	c #020202",
"@ 	c #040404",
"# 	c #050505",
"$ 	c #060606",
"% 	c #0A0A0A",
"& 	c #0D0D0D",
"* 	c #101010",
"= 	c #111111",
"- 	c #0F0F0F",
"; 	c #0E0E0E",
"> 	c #0C0C0C",
", 	c #0B0B0B",
"' 	c #090909",
") 	c #030303",
"! 	c #121212",
"~ 	c #151515",
"{ 	c #181818",
"] 	c #161616",
"^ 	c #131313",
"/ 	c #171717",
"( 	c #202020",
"_ 	c #292929",
": 	c #383838",
"< 	c #414141",
"[ 	c #494949",
"} 	c #555555",
"| 	c #626262",
"1 	c #707070",
"2 	c #777777",
"3 	c #7B7B7B",
"4 	c #7E7E7E",
"5 	c #7A7A7A",
"6 	c #6B6B6B",
"7 	c #646464",
"8 	c #616161",
"9 	c #5B5B5B",
"0 	c #4D4D4D",
"a 	c #333333",
"b 	c #242424",
"c 	c #434343",
"d 	c #676767",
"e 	c #7C7C7C",
"f 	c #8D8D8D",
"g 	c #909090",
"h 	c #8E8E8E",
"i 	c #858585",
"j 	c #848484",
"k 	c #8A8A8A",
"l 	c #969696",
"m 	c #9C9C9C",
"n 	c #A7A7A7",
"o 	c #B1B1B1",
"p 	c #BCBCBC",
"q 	c #C4C4C4",
"r 	c #D0D0D0",
"s 	c #DADADA",
"t 	c #E2E2E2",
"u 	c #E7E7E7",
"v 	c #E9E9E9",
"w 	c #EAEAEA",
"x 	c #E3E3E3",
"y 	c #DFDFDF",
"z 	c #D9D9D9",
"A 	c #D1D1D1",
"B 	c #C6C6C6",
"C 	c #8B8B8B",
"D 	c #575757",
"E 	c #222222",
"F 	c #6A6A6A",
"G 	c #A6A6A6",
"H 	c #D2D2D2",
"I 	c #E6E6E6",
"J 	c #EFEFEF",
"K 	c #F1F1F1",
"L 	c #F0F0F0",
"M 	c #EDEDED",
"N 	c #F5F5F5",
"O 	c #F8F8F8",
"P 	c #FAFAFA",
"Q 	c #FBFBFB",
"R 	c #FCFCFC",
"S 	c #FDFDFD",
"T 	c #FEFEFE",
"U 	c #FFFFFF",
"V 	c #F3F3F3",
"W 	c #A9A9A9",
"X 	c #727272",
"Y 	c #484848",
"Z 	c #CBCBCB",
"` 	c #A3A3A3",
" .	c #6F6F6F",
"..	c #373737",
"+.	c #696969",
"@.	c #D3D3D3",
"#.	c #F7F7F7",
"$.	c #E5E5E5",
"%.	c #343434",
"&.	c #E4E4E4",
"*.	c #EBEBEB",
"=.	c #B7B7B7",
"-.	c #1E1E1E",
";.	c #929292",
">.	c #ECECEC",
",.	c #888888",
"'.	c #2D2D2D",
").	c #424242",
"!.	c #AFAFAF",
"~.	c #F4F4F4",
"{.	c #E8E8E8",
"].	c #3C3C3C",
"^.	c #141414",
"/.	c #666666",
"(.	c #CCCCCC",
"_.	c #2E2E2E",
":.	c #868686",
"<.	c #E0E0E0",
"[.	c #D4D4D4",
"}.	c #797979",
"|.	c #A5A5A5",
"1.	c #EEEEEE",
"2.	c #ABABAB",
"3.	c #4F4F4F",
"4.	c #F6F6F6",
"5.	c #DEDEDE",
"6.	c #ACACAC",
"7.	c #717171",
"8.	c #2B2B2B",
"9.	c #C2C2C2",
"0.	c #8F8F8F",
"a.	c #525252",
"b.	c #ADADAD",
"c.	c #F2F2F2",
"d.	c #BABABA",
"e.	c #686868",
"f.	c #5C5C5C",
"g.	c #C5C5C5",
"h.	c #F9F9F9",
"i.	c #CDCDCD",
"j.	c #878787",
"k.	c #363636",
"l.	c #6D6D6D",
"m.	c #CACACA",
"n.	c #B0B0B0",
"o.	c #535353",
"p.	c #1B1B1B",
"q.	c #767676",
"r.	c #BFBFBF",
"s.	c #9B9B9B",
"t.	c #636363",
"u.	c #5D5D5D",
"v.	c #5E5E5E",
"w.	c #595959",
"x.	c #4E4E4E",
"y.	c #9E9E9E",
"z.	c #303030",
"A.	c #393939",
"B.	c #9A9A9A",
"C.	c #B4B4B4",
"D.	c #1D1D1D",
"E.	c #464646",
"F.	c #070707",
"G.	c #C9C9C9",
"H.	c #191919",
"I.	c #989898",
"J.	c #3D3D3D",
"K.	c #757575",
"L.	c #212121",
"M.	c #7F7F7F",
"N.	c #3E3E3E",
"O.	c #8C8C8C",
"P.	c #C1C1C1",
"Q.	c #272727",
"R.	c #9F9F9F",
"S.	c #D8D8D8",
"T.	c #828282",
"U.	c #2F2F2F",
"V.	c #454545",
"W.	c #D6D6D6",
"X.	c #999999",
"Y.	c #5A5A5A",
"Z.	c #2A2A2A",
"`.	c #DDDDDD",
" +	c #737373",
".+	c #BBBBBB",
"++	c #C3C3C3",
"@+	c #BEBEBE",
"#+	c #BDBDBD",
"$+	c #3B3B3B",
"%+	c #232323",
"&+	c #D5D5D5",
"*+	c #A4A4A4",
"=+	c #CECECE",
"-+	c #B8B8B8",
";+	c #898989",
">+	c #505050",
",+	c #5F5F5F",
"'+	c #919191",
")+	c #4C4C4C",
"!+	c #B2B2B2",
"~+	c #949494",
"{+	c #818181",
"]+	c #E1E1E1",
"^+	c #959595",
"/+	c #6E6E6E",
"(+	c #A0A0A0",
"_+	c #C7C7C7",
":+	c #606060",
"<+	c #1F1F1F",
"[+	c #404040",
"}+	c #A2A2A2",
"|+	c #444444",
"1+	c #7D7D7D",
"2+	c #AAAAAA",
"3+	c #252525",
"4+	c #B6B6B6",
"5+	c #080808",
"6+	c #C0C0C0",
"7+	c #585858",
"8+	c #353535",
"                                                                                                                                ",
"                                                                                                                                ",
"                                                                                                                                ",
"                                                                                                                                ",
"                                                                                                                                ",
"                                                                                                                                ",
"                                                                                                                                ",
"                                                    . + @ # $ % & * = = = - ; > , % ' $ )                                       ",
"                              # % ! ~ { ] ^ = ~ / ( _ : < [ } | 1 2 3 4 5 2 1 6 7 8 9 0 a {                                     ",
"                            b c d e f g h i j k l m n o p q r s t u v w v u x y z A B o C D E @                                 ",
"                          b F G H I J K L M M K N O P Q R S T T U U U U U U U T T S Q V s W X c b                               ",
"                        # Y W u R T U U U U U U U U U U U U U U U U U U U U U U U U U U Q v Z `  ...                            ",
"                        > +.@.R U U U U U U U U U U U U U U U U U U U U U U U U U U U U U S #.$.p 3 %.                          ",
"                        = 4 &.T U U U U U U U U U U U U U U U U U U U U U U U U U U U U U U U R *.=.| -.                        ",
"                        b ;.>.T U U U U U U U U U U U U U U U T T S S S S S T U U U U U U U U U Q s ,.'.)                       ",
"                      ) ).!.~.U U U U U U U U U U U U U U U T T S S S S S T T U U U U U U U U U T {.l ].)                       ",
"                      ^./.(.P U U U U U U U U U U U U U U U U U U U U U U U U U U U U U U U U U S &.g _.)                       ",
"                    . b :.<.T U U U U U U U U U U U U U U U U U U U U U U U U U U U U U U U U U P [.}.(                         ",
"                    + c |.1.T U U U U U U U U U U U U U U U U U U U U U U U U U U U U U U U U Q I 2.3.$                         ",
"                    ^.| q O U U U U U U U U U U U U U U U U U U U U U U U U U U U U U U U T 4.5.6.7._                           ",
"                  . 8.C y S U U U U U U U U U U U U U U U U U U U U U U U U U U U U U U S *.9.0.a._                             ",
"                  @ Y b.K U U U U U U U U U U U U U U U U U U U U U U U U U U U U U U T c.d.e._.$                               ",
"                  , f.g.h.U U U U U U U U U U U U U U U U U U U U T S Q Q Q Q Q Q Q h.L i.j.k.)                                 ",
"                  > l.@.R U U U U U U U U U U U U U U U U T h.V *.y @.Z m.m.m.m.Z Z q n.j.o.p.                                  ",
"                  { q.s R U U U U U U U U U U U U U U T P $.r.s.j  .t.u.u.u.u.u.v.v.w.x.%.p.                                    ",
"                . b ,.t T U U U U U U U U U U U U U R c.@.y.| z.! & ' ' ' ' ' ' ' ' ' $ )                                       ",
"                + A.B.w T U U U U U U U U U U U T 4.<.C.e ).D.                                                                  ",
"                $ E.b.L U U U U U U U U U U U T J i.l v._ )                                                                     ",
"                F.w.r.4.U U U U U U U U U U U 4.G.j E.H.                                                                        ",
"                > /.r P U U U U U U U U U U T w I.J.)                                                                           ",
"                - K.5.S U U U U U U U U U U T x ,.L.                                                                            ",
"                ! M.u T U U U U U U U U U U T >.` N.)                                                                           ",
"                ^.O.1.U U U U U U U U U U U U #.P.u.'                                                                           ",
"                Q.R.~.U U U U U U U U U U U U R S.T.U.                                                                          ",
"              ) ).d.h.U U U T U U U U U U U U S *.=.X : .                                                                       ",
"              ' 9 i.R U U U T U U U U U U U U U Q *.g.k V.!                                                                     ",
"              > e.W.S U U U T U U U U U U U U U U S ~.[.X.Y.Z.                                                                  ",
"              > /.H R U U U T U U U U U U U U U U U T #.`.!. +k.                                                                ",
"              ' 8 Z P U U U U U U U U U U U U U U U U T P u .+2 ..                                                              ",
"              ' f.++#.U U U U U U U U U U U U U U U U U U Q v .+q...                                                            ",
"              ' Y.@+N T U U U U U U U U U U U U U U S S T T P {.#+5 $+.                                                         ",
"              F.a.C.L T U T T U U U U U U U U U U U S h.h.S T Q *.g.j c *                                                       ",
"              @ < y.x R U T T U U U U U U U U U U U U S O h.S T R L i.;.} %+                                                    ",
"              . _ 2 q L S T T U U U U U U U T U U U U U T Q Q T U S V &+*+e.a % @ .                                             ",
"                - Y h =+K S T T U U U U U U T T U U U U U T R S U U T 4.<.-+;+8 V.8.^ .                                         ",
"                  { >+;.=+L S U U U U U U U U T T U U U U U U R Q S T T P M S.9.W ;+,+..!                                       ",
"                    { >+0.m.1.S U U U U U U U U U U U U U U U T P h.R T T S P N *.s p '+Y.Z.                                    ",
"                      { )+:.g.L T U U U U U U U U U U U U U U U T R P Q T U U T S Q K z b.7.z.                                  ",
"                        - N.4 G.~.T U U U U U U U U U U U U U U U U T Q P S T T U U T P I !+t.D.                                ",
"                          . $+:.=+c.S U U U U U U U U U U U U U U U U U T R R S S T U U Q 5.~+k.)                               ",
"                              ].{+d.]+N S U U U U U U U U U U U U U U U U U U U T T U U T c.=.o.$                               ",
"                                U.v.^+++$.O T U U U U U U U U U U U U U U U U U U U U U U O q u.>                               ",
"                                  ! ]./+(+_+t ~.S U U U U U U U U U U U U U U U U U U U U O ++:+'                               ",
"                                    . <+[+e.O.n.S.c.R U U U U U U U U U U U U U U U U T P x }+|+$                               ",
"                                        ) ^.8.0 1+n Z {.O T T U U U U U U U T S R h.c.$.H 2+ ._                                 ",
"                                            . @ 3+N.8 O.4+H <.*.N Q Q P O ~.$.&+G.d.|.C X )+_                                   ",
"                                                  @ 5+'.E.7 7.;.o _+Z G.6+!.g /+w.[ ].3+] $                                     ",
"                                                        $ ' ; '.E.:+8 8 7+x.8+-.F.F.+ .                                         ",
"                                                                $ ' > ' ' $ )                                                   ",
"                                                                                                                                ",
"                                                                                                                                ",
"                                                                                                                                ",
"                                                                                                                                ",
"                                                                                                                                "};
