/* XPM */
static char * exit_xpm[] = {
"64 64 221 2",
"  	c #000000",
". 	c #030303",
"+ 	c #040404",
"@ 	c #060606",
"# 	c #070707",
"$ 	c #090909",
"% 	c #010101",
"& 	c #0C0C0C",
"* 	c #0D0D0D",
"= 	c #080808",
"- 	c #0B0B0B",
"; 	c #0F0F0F",
"> 	c #101010",
", 	c #232323",
"' 	c #323232",
") 	c #444444",
"! 	c #434343",
"~ 	c #414141",
"{ 	c #3D3D3D",
"] 	c #494949",
"^ 	c #545454",
"/ 	c #5A5A5A",
"( 	c #525252",
"_ 	c #2C2C2C",
": 	c #151515",
"< 	c #121212",
"[ 	c #2A2A2A",
"} 	c #585858",
"| 	c #656565",
"1 	c #6E6E6E",
"2 	c #696969",
"3 	c #606060",
"4 	c #5B5B5B",
"5 	c #5D5D5D",
"6 	c #747474",
"7 	c #7D7D7D",
"8 	c #898989",
"9 	c #989898",
"0 	c #A4A4A4",
"a 	c #A7A7A7",
"b 	c #A2A2A2",
"c 	c #A6A6A6",
"d 	c #AEAEAE",
"e 	c #B8B8B8",
"f 	c #BEBEBE",
"g 	c #B5B5B5",
"h 	c #8A8A8A",
"i 	c #707070",
"j 	c #292929",
"k 	c #1B1B1B",
"l 	c #383838",
"m 	c #858585",
"n 	c #A8A8A8",
"o 	c #C4C4C4",
"p 	c #D4D4D4",
"q 	c #DCDCDC",
"r 	c #D9D9D9",
"s 	c #D3D3D3",
"t 	c #CDCDCD",
"u 	c #CECECE",
"v 	c #D0D0D0",
"w 	c #DADADA",
"x 	c #E0E0E0",
"y 	c #E4E4E4",
"z 	c #E8E8E8",
"A 	c #ECECEC",
"B 	c #F0F0F0",
"C 	c #EFEFEF",
"D 	c #EEEEEE",
"E 	c #F1F1F1",
"F 	c #F4F4F4",
"G 	c #F6F6F6",
"H 	c #E2E2E2",
"I 	c #CFCFCF",
"J 	c #6F6F6F",
"K 	c #535353",
"L 	c #BDBDBD",
"M 	c #DDDDDD",
"N 	c #FAFAFA",
"O 	c #FDFDFD",
"P 	c #FEFEFE",
"Q 	c #FCFCFC",
"R 	c #FFFFFF",
"S 	c #E5E5E5",
"T 	c #A9A9A9",
"U 	c #4A4A4A",
"V 	c #343434",
"W 	c #CCCCCC",
"X 	c #F9F9F9",
"Y 	c #C9C9C9",
"Z 	c #646464",
"` 	c #4E4E4E",
" .	c #ABABAB",
"..	c #EDEDED",
"+.	c #CACACA",
"@.	c #BCBCBC",
"#.	c #FBFBFB",
"$.	c #4B4B4B",
"%.	c #5C5C5C",
"&.	c #C2C2C2",
"*.	c #F7F7F7",
"=.	c #F3F3F3",
"-.	c #F5F5F5",
";.	c #F2F2F2",
">.	c #E7E7E7",
",.	c #D7D7D7",
"'.	c #AFAFAF",
").	c #737373",
"!.	c #D8D8D8",
"~.	c #969696",
"{.	c #9E9E9E",
"].	c #A5A5A5",
"^.	c #AAAAAA",
"/.	c #A1A1A1",
"(.	c #A0A0A0",
"_.	c #9F9F9F",
":.	c #9D9D9D",
"<.	c #8C8C8C",
"[.	c #757575",
"}.	c #4F4F4F",
"|.	c #727272",
"1.	c #1E1E1E",
"2.	c #282828",
"3.	c #363636",
"4.	c #3C3C3C",
"5.	c #3E3E3E",
"6.	c #3A3A3A",
"7.	c #262626",
"8.	c #171717",
"9.	c #8E8E8E",
"0.	c #2B2B2B",
"a.	c #020202",
"b.	c #ADADAD",
"c.	c #484848",
"d.	c #C3C3C3",
"e.	c #686868",
"f.	c #D1D1D1",
"g.	c #D5D5D5",
"h.	c #161616",
"i.	c #DFDFDF",
"j.	c #888888",
"k.	c #242424",
"l.	c #C5C5C5",
"m.	c #404040",
"n.	c #C7C7C7",
"o.	c #BFBFBF",
"p.	c #555555",
"q.	c #D2D2D2",
"r.	c #848484",
"s.	c #222222",
"t.	c #EBEBEB",
"u.	c #C0C0C0",
"v.	c #111111",
"w.	c #CBCBCB",
"x.	c #939393",
"y.	c #797979",
"z.	c #7B7B7B",
"A.	c #7A7A7A",
"B.	c #717171",
"C.	c #949494",
"D.	c #C8C8C8",
"E.	c #353535",
"F.	c #C1C1C1",
"G.	c #B4B4B4",
"H.	c #F8F8F8",
"I.	c #303030",
"J.	c #999999",
"K.	c #E9E9E9",
"L.	c #E6E6E6",
"M.	c #141414",
"N.	c #929292",
"O.	c #818181",
"P.	c #7E7E7E",
"Q.	c #1A1A1A",
"R.	c #131313",
"S.	c #878787",
"T.	c #828282",
"U.	c #6D6D6D",
"V.	c #808080",
"W.	c #E3E3E3",
"X.	c #333333",
"Y.	c #787878",
"Z.	c #9C9C9C",
"`.	c #DEDEDE",
" +	c #6C6C6C",
".+	c #B2B2B2",
"++	c #313131",
"@+	c #2E2E2E",
"#+	c #C6C6C6",
"$+	c #7F7F7F",
"%+	c #666666",
"&+	c #474747",
"*+	c #DBDBDB",
"=+	c #B1B1B1",
"-+	c #676767",
";+	c #191919",
">+	c #B6B6B6",
",+	c #979797",
"'+	c #8F8F8F",
")+	c #767676",
"!+	c #8D8D8D",
"~+	c #1D1D1D",
"{+	c #626262",
"]+	c #BBBBBB",
"^+	c #D6D6D6",
"/+	c #515151",
"(+	c #5E5E5E",
"_+	c #0A0A0A",
":+	c #0E0E0E",
"<+	c #1C1C1C",
"[+	c #2F2F2F",
"}+	c #454545",
"|+	c #575757",
"1+	c #6A6A6A",
"2+	c #B0B0B0",
"3+	c #181818",
"4+	c #595959",
"5+	c #B3B3B3",
"6+	c #8B8B8B",
"7+	c #212121",
"8+	c #505050",
"                                                                                                                                ",
"                                                                                                                                ",
"                                                                                                                                ",
"                                                                                                                                ",
"                                                                      . + @ + + + @ # $ $ # + %                                 ",
"                                      % + # & * * $ = $ $ $ - * ; > , ' ) ! ~ { ~ ] ^ / / ( ~ _ : @                             ",
"                                  . < [ ~ } | 1 2 3 4 4 5 3 | 1 6 7 8 9 0 a 0 b c d e f f g 0 h i ] j                           ",
"                                k l 3 m n o p q r s t t u v p w x y z A B B C D C E F G G F D H I a J j                         ",
"                              k K 8 L M E N O P P O Q Q Q Q Q O P P P P R R R R R R R R R R P O N S T U @                       ",
"                            . V m W F O R R R R R R R R R R R R R R R R R R R R R R R R R R R R R X Y Z &                       ",
"                            @ `  ...P R R R R R R R R R R R R R R R R R R R R R R R R R R R R R R N +.Z &                       ",
"                            $ } @.G R R R R R R R R R R R R R R R R R R P P P P P P P P P P P P #.z  .$.@                       ",
"                            $ %.&.*.R R R R P X F =.=.F -.-.-.=.;.B C C D D D D D D ..........>.,.'.).j                         ",
"                            $ %.&.G R R R R X !.c ~.9 {.].^. .n ].b /.(.(.(.(.(.(.(.(.(._.:.9 <.[.}.j                           ",
"                            $ %.&.G R R R R X v |., 1.2.3.4.5.5.{ { { { { { { { { { { { { 6.V 7.8.@                             ",
"                            $ %.&.-.R R R R Q x 9.0.% % a.+ + + + + + + + + + + + + + + + + a.%                                 ",
"                            $ %.&.-.P R R R P C b.c.+                                                                           ",
"                            $ %.&.-.P R R R R *.d.%.-                                                                           ",
"                            $ %.&.-.P R R R R N I e.&                                                                           ",
"                            $ %.&.-.P R P R R N f.2 &                                                                           ",
"                            $ %.&.-.P R P R R N g.|.h.                                                                          ",
"                            $ %.d.G P R P P R Q i.j.k.%                                                                         ",
"                            $ %.l.*.R R P R R P ..].m.a.                                                                        ",
"                            $ 5 n.X R R R R R R G o.p.$                                                                         ",
"                            $ 5 Y N R R R R R R #.q.1 &                                                                         ",
"                            $ 5 +.N R R R R R R Q M r.s.                                                                        ",
"                            $ 5 +.N R R R P R R O t.].5..                                                                       ",
"                            $ 5 +.#.R R R P P R R G u./ h.v.v.v.v.v.v.v.v.v.v.v.v.v.v.v.; $ .                                   ",
"                            $ 5 w.#.R R R P O R R #.!.x.y.z.7 7 7 7 7 7 7 7 7 7 7 7 7 A.B.%.4.k                                 ",
"                            $ 5 W #.R R R P O R R O =.S H y S S S S S S S S S S S S S H r &.C.} k                               ",
"                            $ 4 D.#.R R R P O R R R P P P P P P P P P P P P P P P P P P Q -.s h E..                             ",
"                            # K F.N R R R R R R R R R R R R R R R R R R R R R R R R R R R P C ^.U @                             ",
"                            + ) G.H.R R R R R R R R R R R R R R R R R R R R R R R R R R R P C ^.U @                             ",
"                            % I.a G R R R R R P R R R R P P P P P P P P P P P P P P P P Q -.s h E..                             ",
"                              1.J.-.R R R R Q B C E B ..K.L.S S S S S S S S S S S S S H r &.C.} k                               ",
"                              M.9.;.R R R R N o x.N.9.8 O.P.7 7 7 7 7 7 7 7 7 7 7 7 7 A.B.%.4.k                                 ",
"                              M.j.B R R R R #.f ] Q.8.M.< v.v.v.v.v.v.v.v.v.v.v.v.v.v.v.; $ .                                   ",
"                              R.S.C R R R R O t / =                                                                             ",
"                              R.T.A R R R R P !.U.:                                                                             ",
"                              v.V.z R R R R P W.T.k.%                                                                           ",
"                              v.z.S P R R R R t.N.X.a.                                                                          ",
"                              ; Y.H P R R R R D Z.6.+                                                                           ",
"                              ; |.`.P R R R R B (.{ +                                                                           ",
"                              * 1 q P R R R R B (.{ +                                                                           ",
"                              *  +w P R R R R B (.{ +                                                                           ",
"                              *  +w P R R R R B (.{ +                                                                           ",
"                              *  +w P R R R R B (.{ +                                                                           ",
"                              *  +w P R R R R B (.{ +                                                                           ",
"                              *  +w P R R R R B (.{ +                                                                           ",
"                              * J M P R R R R B /.5.+                                                                           ",
"                              > A.y P R R R R ;..+3 ++; - @ .                                                                   ",
"                              @+J.C R R R R R N L.#+b $+%+p.6., = . %                                                           ",
"                            @ &+g *.R R R R R R P Q -.K.*++.=+<.-+&+++s.k Q.;+8.h.M.> ; ; ; $ .                                 ",
"                            $ 5 #+#.R R R R R R R R R R P O X C M D.>+a _.Z.,+x.'+j.P.[.)+J 5 4.k                               ",
"                            $ p.L H.R R R R R R R R R R R R R R P O Q X H.*.G F ;.D K.S H *+l.,+} k                             ",
"                            . { {.>.O R R R R R R R R R R R R R R R R R R R R R R R R R R O H.r !+E..                           ",
"                              ~+| G.S *.Q O P P R R R R R R R R R R R R R R R R R R R R R R R =.'.$.@                           ",
"                                j {+~.]+W ^+M >.E H.#.O P R R R R R R R R R R R R R R R R R R -..+$.@                           ",
"                                  ~+3./+(+e.U.A.9.T @.t i...G #.O P R R R R R R R R R R R R O W.C.3..                           ",
"                                    . @ _+- & :+<+[+}+|+1+T.Z.2+d.p H ..F H.#.#.Q Q O O Q *.H '.{+<+                            ",
"                                                  % + # - < 3+0.{ 4+ +m J.'.L #++.t v I n.5+6+} 7+                              ",
"                                                                . @ * v.7.6.8+4+5 (+(+%.p.! 0.>                                 ",
"                                                                          . @ $ $ $ $ $ # + %                                   ",
"                                                                                                                                "};
